
<svg xmlns="http://www.w3.org/2000/svg" version="1.1" xmlns:xlink="http://www.w3.org/1999/xlink" preserveAspectRatio="none" x="0px" y="0px" viewBox="0 0 34 30">
<defs>
<g id="Layer0_0_FILL">
<path fill="currentColor" stroke="none" d="
M 23.4 27.7
Q 23.15 27.45 22.8 27.45 22.45 27.45 22.2 27.7 21.95 27.95 21.95 28.3 21.95 28.65 22.2 28.9 22.45 29.15 22.8 29.15 23.15 29.15 23.4 28.9 23.65 28.65 23.65 28.3 23.65 27.95 23.4 27.7
M 11.4 27.7
Q 11.15 27.45 10.8 27.45 10.45 27.45 10.2 27.7 9.95 27.95 9.95 28.3 9.95 28.65 10.2 28.9 10.45 29.15 10.8 29.15 11.15 29.15 11.4 28.9 11.65 28.65 11.65 28.3 11.65 27.95 11.4 27.7
M 11.65 2.3
Q 11.65 1.95 11.4 1.7 11.15 1.45 10.8 1.45 10.45 1.45 10.2 1.7 9.95 1.95 9.95 2.3 9.95 2.65 10.2 2.9 10.45 3.15 10.8 3.15 11.15 3.15 11.4 2.9 11.65 2.65 11.65 2.3
M 23.4 2.9
Q 23.65 2.65 23.65 2.3 23.65 1.95 23.4 1.7 23.15 1.45 22.8 1.45 22.45 1.45 22.2 1.7 21.95 1.95 21.95 2.3 21.95 2.65 22.2 2.9 22.45 3.15 22.8 3.15 23.15 3.15 23.4 2.9
M 20.75 2.65
L 20.7 2.6 20 2 17.95 1 17.9 1
Q 17.4 0.75 16.95 0.1 16.9 0.05 16.85 0 16.8 0 16.75 0 16.7 0.05 16.7 0.1 16.2 0.75 15.7 1
L 13.65 2 13.6 2 12.9 2.6 12.9 2.65
Q 12.6 3 12.6 3.6
L 12.6 3.65 12.7 4 11.75 3.85 11.7 3.85
Q 9.1 3.85 7 4.7 4.85 5.55 3.3 7.1 1.7 8.6 0.85 10.75 0 12.8 0 15.3 0 17.8 0.85 19.85 1.7 22 3.25 23.5 4.8 25.1 6.95 25.95 9.1 26.8 11.7 26.8
L 12.35 26.8 12.65 26.75 12.6 27.1
Q 12.6 27.65 12.9 28.05
L 12.9 28.1 13.6 28.7 13.65 28.7 15.7 29.7
Q 16.25 29.95 16.7 30.6
L 16.75 30.65
Q 16.8 30.65 16.85 30.65 16.9 30.65 16.95 30.6 17.4 29.95 17.95 29.7
L 20 28.7 20.7 28.1
Q 20.7 28.05 20.75 28.05 21 27.65 21 27.1
L 20.95 26.75 21.35 26.8
Q 21.6 26.8 21.9 26.8 24.5 26.8 26.65 25.95 28.8 25.1 30.35 23.5 31.9 22 32.75 19.85 33.6 17.8 33.6 15.3 33.6 12.8 32.7 10.75 31.85 8.6 30.3 7.1 28.75 5.55 26.55 4.7 24.45 3.85 21.9 3.85
L 20.95 4 21 3.65 21 3.6
Q 21 3 20.75 2.65
M 24.7 6
Q 24.7 5.7 24.6 5.45 26.2 5.85 27.65 6.65 29.2 7.5 30.35 8.75 31.45 10.1 32.1 11.7 32.75 13.4 32.75 15.3 32.75 17.2 32.1 18.85 31.5 20.5 30.4 21.8 29.25 23.1 27.7 24 26.3 24.8 24.65 25.2 24.7 24.95 24.7 24.65 24.7 24.05 24.25 23.75 23.75 23.45 23.2 23.45
L 22.75 23.55
Q 22.65 23.55 22.65 23.6 22.6 23.65 22.6 23.7 22.6 23.75 22.65 23.8
L 22.85 24.1 22.9 24.55
Q 22.9 24.9 22.45 25.05
L 21.15 25.2 20.1 25.15 19 24.85 19.05 24.9 18.1 24.4 17.4 23.9 16.9 23.35
Q 16.9 23.3 16.85 23.3
L 16.8 23.3
Q 16.75 23.3 16.7 23.35
L 15.8 24.25 14.6 24.9 14.6 24.85 13.5 25.15 11.75 25.2 11.15 25 10.9 24.85 10.75 24.45 10.75 24.1 11 23.8
Q 11 23.75 11 23.7 11 23.65 11 23.6 10.95 23.55 10.9 23.55
L 10.45 23.45 10.4 23.45
Q 9.85 23.45 9.4 23.75
L 9.35 23.75
Q 8.9 24.05 8.9 24.65 8.9 24.95 9 25.2 7.3 24.8 5.95 24 4.35 23.05 3.2 21.75 2.1 20.45 1.5 18.85 0.85 17.2 0.85 15.3 0.85 13.4 1.55 11.7 2.2 10.1 3.35 8.75
L 3.3 8.75
Q 4.45 7.45 6.05 6.65 7.4 5.85 9.05 5.45 8.9 5.7 8.9 6 8.9 6.6 9.35 6.95
L 9.4 6.95
Q 9.85 7.2 10.4 7.2 10.55 7.2 10.6 7.2 10.75 7.2 10.95 7.1 10.95 7.05 11 7.05 11 7 11 6.95
L 11 6.9 10.75 6.55 10.7 6.2 10.85 5.85 11.15 5.65 11.75 5.5 12.45 5.45 13.5 5.5 14.6 5.8 15.55 6.3 16.2 6.75 16.7 7.3
Q 16.7 7.35 16.75 7.35 16.8 7.35 16.85 7.35 16.9 7.35 16.9 7.3
L 17.4 6.75 19.05 5.8 19 5.8 20.1 5.5 21.15 5.45
Q 21.9 5.45 22.45 5.65 22.9 5.75 22.9 6.15
L 22.85 6.55 22.65 6.9
Q 22.6 6.9 22.6 6.95 22.6 7 22.65 7.05 22.65 7.1 22.75 7.1
L 23.2 7.2
Q 23.75 7.2 24.25 6.95 24.7 6.6 24.7 6 Z"/>
</g>
</defs>

<g transform="matrix( 1, 0, 0, 1, 0,0) ">
<use xlink:href="#Layer0_0_FILL"/>
</g>
</svg>
